<!-- <svg xmlns="http://www.w3.org/2000/svg" width="24" height="24" viewBox="0 0 24 24" fill="none" stroke="#3b82f6" stroke-width="2" stroke-linecap="round" stroke-linejoin="round">
  <rect x="9" y="9" width="13" height="13" rx="2" ry="2"></rect>
  <path d="M5 15H4a2 2 0 0 1-2-2V4a2 2 0 0 1 2-2h9a2 2 0 0 1 2 2v1"></path>
</svg> -->
<svg viewBox="0 0 32 32"
     xmlns="http://www.w3.org/2000/svg">
    <title>Copy All</title>
    <g data-name="Layer 2"
       id="Layer_2">
        <path fill="#3b82f6"
              d="M16.47,15.12,26.34,25a1,1,0,0,1-1.41,1.41l-9.06-9.06-8.8,8.8a1,1,0,0,1-1.41,0h0a1,1,0,0,1,0-1.42l9.61-9.61A.85.85,0,0,1,16.47,15.12Z" />
        <path fill="#3b82f6"
              d="M16.47,5.54l9.87,9.88a1,1,0,0,1-1.41,1.41L15.87,7.77l-8.8,8.8a1,1,0,0,1-1.41,0h0a1,1,0,0,1,0-1.41l9.61-9.62A.85.85,0,0,1,16.47,5.54Z" />
    </g>
</svg>